# xmcd
#
# Track frame offsets:
# 150
# 17484
# 39384
# 61634
# 80185
# 94850
# 114438
# 138360
# 155205
# 185546
# 206483
# 225859
#
# Disc length: 3279 seconds
#
#
# Revision: 0
# Processed by: cddbd v1.5.1PL0 Copyright (c) Steve Scherf et al.
# Submitted via: FreeRIP 2.53 
#
DISCID=930ccd0c
DTITLE=Daddy Long Legs - Just Like That
DYEAR=2004
DGENRE=Blues
TTITLE0=Just like that
TTITLE1=Got me in a corner
TTITLE2=That's it, that's all
TTITLE3=Mel's blues
TTITLE4=Sad but True
TTITLE5=Got me buzzin'
TTITLE6=Nuthin' hurts you like the truth
TTITLE7=Cry cry cry
TTITLE8=Read between the lines
TTITLE9=Mine all mine
TTITLE10=First class con
TTITLE11=Wagler
EXTD=BluesfestRadio.com
EXTT0=
EXTT1=
EXTT2=
EXTT3=
EXTT4=
EXTT5=
EXTT6=
EXTT7=
EXTT8=
EXTT9=
EXTT10=
EXTT11=
PLAYORDER=
